<svg width="174" height="80" viewBox="0 0 174 80" fill="none" xmlns="http://www.w3.org/2000/svg">
<g clip-path="url(#clip0_2087_1197)">
<path d="M41.8295 61.7181C40.7503 62.3454 39.8359 63.2503 39.2067 64.3946L39.2064 64.3953C38.8875 64.9808 38.769 65.67 38.7272 66.3749C38.6983 66.8619 38.7057 67.3715 38.713 67.8675C38.7161 68.0858 38.7193 68.3014 38.7193 68.5113V68.5125C38.7193 69.9125 38.7193 70.8929 38.9533 72.5638L38.9556 72.5802L38.9607 72.596C39.4353 74.0486 40.0325 74.8876 41.1323 75.541L41.1339 75.5419C42.071 76.0865 43.0484 76.0665 43.9777 76.0476C44.1462 76.0441 44.3132 76.0407 44.478 76.0407H44.4786H44.501C45.0337 76.0408 45.4145 76.0408 45.801 75.9129C46.1942 75.7828 46.579 75.5262 47.1513 75.0503C47.2877 74.9368 47.4119 74.8114 47.525 74.6784L47.5413 75.6204L47.5445 75.8041H47.7282H48.4581H48.645V75.6171V72.0783L48.6454 72.0756L48.645 72.0589C48.6382 71.8205 48.6315 71.6234 48.6257 71.4506C48.6023 70.7628 48.592 70.4597 48.6448 69.4687L48.645 69.4687V69.4587V67.5638V67.3769H48.4581H47.2639H47.077V67.5638V69.4529C47.035 70.1242 47.0462 70.5266 47.06 71.0261C47.0681 71.3157 47.077 71.638 47.077 72.0642C47.077 72.7483 46.9328 73.1888 46.6875 73.5072C46.4393 73.8294 46.0696 74.0508 45.5669 74.2602C45.0525 74.4746 44.4636 74.6502 43.9076 74.7132C43.3474 74.7767 42.8459 74.7233 42.4838 74.5088C41.7112 74.0511 41.1799 73.1315 40.6967 72.2139C40.4763 71.7955 40.3732 71.1977 40.3287 70.5358C40.2932 70.0074 40.2958 69.4572 40.2982 68.9487C40.2988 68.8235 40.2994 68.7009 40.2994 68.5817C40.2994 68.2762 40.2807 67.9656 40.2608 67.6622C40.2586 67.6292 40.2564 67.5962 40.2543 67.5633C40.2363 67.2926 40.2188 67.0287 40.213 66.7722C40.1999 66.1937 40.2482 65.6869 40.464 65.2833L40.4645 65.2823C40.9477 64.3648 41.479 63.4452 42.2517 62.9874C42.6319 62.7622 43.097 62.6482 43.606 62.5922C44.0865 62.5395 44.5916 62.5396 45.0859 62.5398C45.1155 62.5398 45.145 62.5399 45.1745 62.5399C45.294 62.5399 45.407 62.5392 45.5145 62.5385C46.2094 62.5341 46.6732 62.5312 47.1592 62.7305C47.5041 62.872 47.9598 62.7789 48.1456 62.3998C48.3082 62.068 48.1766 61.6504 47.8055 61.5167C47.3314 61.346 46.5311 61.1227 45.5831 61.1227C45.4875 61.1227 45.3913 61.1224 45.2947 61.1221C44.7455 61.1203 44.1839 61.1185 43.6446 61.1742C43.0081 61.24 42.3869 61.3871 41.8295 61.7181ZM41.8295 61.7181C41.8298 61.7179 41.8301 61.7177 41.8303 61.7176L41.9243 61.8792M41.8295 61.7181C41.8293 61.7182 41.829 61.7183 41.8288 61.7185L41.9243 61.8792M41.9243 61.8792C40.8727 62.4903 39.9828 63.3711 39.3705 64.4847L40.2992 65.1952C40.7783 64.2854 41.3312 63.3155 42.1564 62.8266C42.9576 62.352 44.0691 62.3525 45.0832 62.3529L45.1745 62.3529C45.2916 62.3529 45.4035 62.3522 45.5108 62.3514C46.2019 62.3466 46.707 62.3431 47.2301 62.5576C47.5077 62.6714 47.8457 62.587 47.9777 62.3175C48.0969 62.0744 47.997 61.7843 47.7422 61.6926C47.2811 61.5265 46.5029 61.3097 45.5831 61.3097C45.4862 61.3097 45.3892 61.3093 45.2921 61.309C44.0959 61.3052 42.8969 61.3014 41.9243 61.8792ZM10.7698 61.879V61.6921H10.5829H0.600098H0.413182V61.879V62.7966V62.9836H0.600098H5.05635V75.4858V75.6728H5.24326H6.25781H6.44473V75.4858V62.9836H10.5829H10.7698V62.7966V61.879ZM12.8571 75.6728H12.9923L13.0346 75.5444L14.4326 71.3035H19.7434L21.4688 75.5561L21.5161 75.6728H21.642H23.1194H23.3856L23.2953 75.4224L18.224 61.3671L18.1795 61.2436H18.0482H16.4709H16.3398L16.2952 61.3669L11.2039 75.4222L11.1132 75.6728H11.3797H12.8571ZM33.7113 75.5477L33.7552 75.6728H33.8877H35.5216H35.8064L35.6931 75.4115L33.3321 69.966C33.7439 69.6436 33.9937 69.3412 34.2025 69.037C34.2863 68.9149 34.36 68.7987 34.433 68.6834C34.5637 68.4773 34.6924 68.2742 34.8737 68.0462L34.8891 68.0267L34.899 68.0039C35.1322 67.463 35.2359 67.156 35.276 66.8474C35.3033 66.6367 35.3002 66.4234 35.2961 66.1399C35.2944 66.0234 35.2925 65.8951 35.2925 65.7503C35.2925 64.4694 34.8697 63.4199 34.0161 62.62C33.1706 61.8153 31.9389 61.4283 30.3538 61.4283H26.161H25.9741V61.6152V75.4858V75.6728H26.161H27.5586H27.7455V75.4858V70.0938L31.8086 70.1184L33.7113 75.5477ZM32.6993 67.7958L32.6977 67.7974C32.1994 68.2934 31.4366 68.5578 30.3738 68.5578H27.7455V63.0039H30.3538C31.4756 63.0039 32.2567 63.2575 32.7394 63.7253L32.7412 63.727C33.2264 64.1849 33.4812 64.8495 33.4812 65.7503C33.4812 66.6188 33.216 67.2937 32.6993 67.7958ZM59.7111 68.1132V67.9263H59.5242H54.4202V62.9836H60.1232H60.3101V62.7966V61.6152V61.4283H60.1232H53.8749C53.1977 61.4283 52.6488 61.9772 52.6488 62.6543V74.578C52.6488 75.2551 53.1977 75.8041 53.8749 75.8041H60.1232H60.3101V75.6171V74.4357V74.2488H60.1232H54.4202V69.4816H59.5242H59.7111V69.2947V68.1132ZM73.6847 61.6921H73.4978H63.515H63.3281V61.879V62.7966V62.9836H63.515H67.9712V75.4858V75.6728H68.1581H69.1727H69.3596V75.4858V62.9836H73.4978H73.6847V62.7966V61.879V61.6921ZM17.2459 63.7705L19.3722 69.7454H15.0304L17.2459 63.7705Z" fill="#1C1C1E" stroke="#1C1C1E" stroke-width="0.373832"/>
<path d="M88.1759 68.4345C88.9522 68.5852 89.6101 68.996 90.1496 69.6671C90.6891 70.3382 90.9589 71.1188 90.9589 72.009C90.9589 72.7349 90.7812 73.3922 90.4259 73.9811C90.0838 74.5563 89.5772 75.0151 88.9062 75.3575C88.2351 75.6862 87.4324 75.8506 86.4982 75.8506H82.0681C81.8768 75.8506 81.7217 75.6955 81.7217 75.5042V61.8374C81.7217 61.6461 81.8768 61.491 82.0681 61.491H86.36C87.7548 61.491 88.814 61.8266 89.5378 62.4976C90.2746 63.1687 90.6431 64.0383 90.6431 65.1066C90.6431 65.9968 90.4128 66.7226 89.9522 67.2841C89.4917 67.8319 88.8996 68.2154 88.1759 68.4345ZM83.1033 67.8388H86.3205C87.2548 67.8388 87.9719 67.6128 88.4719 67.1609C88.9851 66.6952 89.2417 66.0584 89.2417 65.2504C89.2417 64.4561 88.9851 63.8329 88.4719 63.381C87.9719 62.929 87.235 62.7031 86.2613 62.7031H83.1033V67.8388ZM86.3995 74.6385C87.3995 74.6385 88.1759 74.392 88.7285 73.899C89.2943 73.4059 89.5772 72.728 89.5772 71.8652C89.5772 71.0024 89.2812 70.3176 88.689 69.8109C88.1101 69.2905 87.3271 69.0303 86.3403 69.0303H83.1033V74.6385H86.3995Z" fill="#1C1C1E"/>
<path d="M95.9067 61.491V70.5299C95.9067 71.9542 96.229 73.0088 96.8738 73.6935C97.5317 74.3783 98.4265 74.7207 99.5581 74.7207C100.69 74.7207 101.571 74.3852 102.203 73.7141C102.848 73.0293 103.17 71.9679 103.17 70.5299V61.491H104.552V70.5094C104.552 72.3309 104.085 73.7004 103.15 74.618C102.229 75.5356 101.025 75.9944 99.5384 75.9944C98.0515 75.9944 96.8409 75.5356 95.9067 74.618C94.9856 73.7004 94.525 72.3309 94.525 70.5094V61.491H95.9067Z" fill="#1C1C1E"/>
<path d="M122.481 61.491V75.8506H121.1V61.491H122.481Z" fill="#1C1C1E"/>
<path d="M136.682 75.8506L136.017 75.8595L134.911 75.8506L128.077 63.3218V75.8506H127.037V61.5937H128.681L135.716 74.4356V61.5937H136.682V75.8506Z" fill="#1C1C1E"/>
<path d="M143.013 62.662V68.0237H148.243V69.2152H143.013V74.6591H148.836V75.8506H142.324C141.942 75.8506 141.631 75.5404 141.631 75.1578V62.1632C141.631 61.7806 141.942 61.4705 142.324 61.4705H148.836V62.662H143.013Z" fill="#1C1C1E"/>
<path d="M112.903 75.9944C112.175 75.9944 109.994 75.9018 109.16 75.8652C108.975 75.8571 108.831 75.7047 108.831 75.5195V75.0026C108.831 74.8113 108.985 74.6571 109.176 74.6617C110.624 74.696 114.766 74.8658 115.257 74.4173C115.81 73.9106 115.943 72.8992 115.943 72.1323C115.943 71.516 115.789 70.9651 115.487 70.5954C115.184 70.2119 114.787 69.8179 114.339 69.6399C113.892 69.4481 113.298 69.4138 112.509 69.1946C111.587 68.9344 110.857 68.9309 110.318 68.6844C109.778 68.4379 109.213 68.0105 108.831 67.49C108.449 66.9696 108.364 66.0584 108.364 65.1682C108.364 64.4287 108.233 63.6381 108.602 63.0629C108.97 62.474 109.647 62.0082 110.318 61.6795C110.989 61.3508 111.916 61.3267 112.785 61.3267C113.975 61.3267 115.218 61.1838 116.01 61.6974C116.117 61.7663 116.159 61.8969 116.134 62.0209L116.039 62.483C115.992 62.7139 115.726 62.8408 115.499 62.7791C114.687 62.5593 113.404 62.5593 112.666 62.5593C111.837 62.5593 110.87 62.4858 110.318 62.9515C109.765 63.4034 109.52 64.3739 109.52 65.1682C109.52 65.7708 109.905 66.4036 110.208 66.7734C110.511 67.1432 110.897 67.2362 111.344 67.4279C111.805 67.6197 112.423 67.8251 113.199 68.0442C114.094 68.3044 114.818 68.5646 115.371 68.8249C115.923 69.0714 116.289 69.3276 116.634 69.8787C117.101 70.6234 116.958 72.2262 116.958 72.2262C116.958 72.8972 116.766 73.76 116.734 74.2793C116.392 74.8819 116.16 75.2419 115.489 75.6117C114.818 75.9814 113.838 75.9944 112.903 75.9944Z" fill="#1C1C1E"/>
<path d="M157.286 76.2617C156.557 76.2617 154.377 76.1691 153.543 76.1325C153.358 76.1244 153.214 75.9721 153.214 75.7869V75.2699C153.214 75.0786 153.368 74.9245 153.559 74.929C155.007 74.9633 159.149 75.1331 159.64 74.6846C160.192 74.1779 160.325 73.1665 160.325 72.3996C160.325 71.7833 160.172 71.2325 159.869 70.8627C159.567 70.4792 159.169 70.0852 158.722 69.9072C158.274 69.7155 157.681 69.6811 156.891 69.462C155.97 69.2017 155.24 69.1982 154.7 68.9517C154.161 68.7052 153.595 68.2778 153.214 67.7574C152.832 67.2369 152.746 66.3257 152.746 65.4355C152.746 64.696 152.616 63.9055 152.984 63.3303C153.352 62.7414 154.029 62.2755 154.7 61.9468C155.371 61.6181 156.299 61.594 157.167 61.594C158.358 61.594 159.601 61.4511 160.393 61.9647C160.499 62.0336 160.542 62.1642 160.516 62.2883L160.422 62.7503C160.374 62.9813 160.109 63.1081 159.881 63.0465C159.069 62.8266 157.787 62.8266 157.049 62.8266C156.22 62.8266 155.253 62.7532 154.7 63.2188C154.148 63.6707 153.902 64.6412 153.902 65.4355C153.902 66.0381 154.288 66.671 154.591 67.0407C154.893 67.4105 155.279 67.5035 155.727 67.6953C156.187 67.887 156.806 68.0924 157.582 68.3115C158.477 68.5718 159.2 68.832 159.753 69.0922C160.306 69.3387 160.671 69.5949 161.017 70.1461C161.484 70.8907 161.34 72.4935 161.34 72.4935C161.34 73.1645 161.149 74.0273 161.116 74.5466C160.774 75.1492 160.543 75.5092 159.871 75.879C159.2 76.2488 158.22 76.2617 157.286 76.2617Z" fill="#1C1C1E"/>
<path d="M168.861 76.2523C168.133 76.2523 165.952 76.1597 165.118 76.1231C164.933 76.115 164.789 75.9627 164.789 75.7775V75.2605C164.789 75.0692 164.943 74.9151 165.134 74.9196C166.582 74.9539 170.724 75.1237 171.215 74.6752C171.768 74.1685 171.901 73.1571 171.901 72.3902C171.901 71.7739 171.747 71.2231 171.445 70.8533C171.142 70.4698 170.745 70.0758 170.297 69.8978C169.85 69.7061 169.256 69.6717 168.467 69.4525C167.546 69.1923 166.815 69.1888 166.276 68.9423C165.736 68.6958 165.171 68.2684 164.789 67.748C164.407 67.2275 164.322 66.3163 164.322 65.4261C164.322 64.6866 164.191 63.8961 164.56 63.3209C164.928 62.732 165.605 62.2661 166.276 61.9374C166.947 61.6087 167.874 61.5846 168.743 61.5846C169.933 61.5846 171.176 61.4417 171.968 61.9553C172.075 62.0242 172.117 62.1548 172.092 62.2789L171.997 62.7409C171.95 62.9719 171.684 63.0987 171.457 63.0371C170.645 62.8172 169.362 62.8172 168.625 62.8172C167.796 62.8172 166.828 62.7437 166.276 63.2094C165.723 63.6613 165.478 64.6318 165.478 65.4261C165.478 66.0287 165.863 66.6616 166.166 67.0313C166.469 67.4011 166.855 67.4941 167.302 67.6859C167.763 67.8776 168.381 68.083 169.157 68.3021C170.052 68.5624 170.776 68.8226 171.329 69.0828C171.881 69.3293 172.247 69.5855 172.592 70.1367C173.059 70.8813 172.916 72.4841 172.916 72.4841C172.916 73.1551 172.724 74.0179 172.692 74.5372C172.35 75.1398 172.118 75.4998 171.447 75.8696C170.776 76.2394 169.796 76.2523 168.861 76.2523Z" fill="#1C1C1E"/>
<path d="M88.1759 68.4345C88.9522 68.5852 89.6101 68.996 90.1496 69.6671C90.6891 70.3382 90.9589 71.1188 90.9589 72.009C90.9589 72.7349 90.7812 73.3922 90.4259 73.9811C90.0838 74.5563 89.5772 75.0151 88.9062 75.3575C88.2351 75.6862 87.4324 75.8506 86.4982 75.8506H82.0681C81.8768 75.8506 81.7217 75.6955 81.7217 75.5042V61.8374C81.7217 61.6461 81.8768 61.491 82.0681 61.491H86.36C87.7548 61.491 88.814 61.8266 89.5378 62.4976C90.2746 63.1687 90.6431 64.0383 90.6431 65.1066C90.6431 65.9968 90.4128 66.7226 89.9522 67.2841C89.4917 67.8319 88.8996 68.2154 88.1759 68.4345ZM83.1033 67.8388H86.3205C87.2548 67.8388 87.9719 67.6128 88.4719 67.1609C88.9851 66.6952 89.2417 66.0584 89.2417 65.2504C89.2417 64.4561 88.9851 63.8329 88.4719 63.381C87.9719 62.929 87.235 62.7031 86.2613 62.7031H83.1033V67.8388ZM86.3995 74.6385C87.3995 74.6385 88.1759 74.392 88.7285 73.899C89.2943 73.4059 89.5772 72.728 89.5772 71.8652C89.5772 71.0024 89.2812 70.3176 88.689 69.8109C88.1101 69.2905 87.3271 69.0303 86.3403 69.0303H83.1033V74.6385H86.3995Z" stroke="#1C1C1E" stroke-width="0.523364"/>
<path d="M95.9067 61.491V70.5299C95.9067 71.9542 96.229 73.0088 96.8738 73.6935C97.5317 74.3783 98.4265 74.7207 99.5581 74.7207C100.69 74.7207 101.571 74.3852 102.203 73.7141C102.848 73.0293 103.17 71.9679 103.17 70.5299V61.491H104.552V70.5094C104.552 72.3309 104.085 73.7004 103.15 74.618C102.229 75.5356 101.025 75.9944 99.5384 75.9944C98.0515 75.9944 96.8409 75.5356 95.9067 74.618C94.9856 73.7004 94.525 72.3309 94.525 70.5094V61.491H95.9067Z" stroke="#1C1C1E" stroke-width="0.523364"/>
<path d="M122.481 61.491V75.8506H121.1V61.491H122.481Z" stroke="#1C1C1E" stroke-width="0.523364"/>
<path d="M136.682 75.8506L136.017 75.8595L134.911 75.8506L128.077 63.3218V75.8506H127.037V61.5937H128.681L135.716 74.4356V61.5937H136.682V75.8506Z" stroke="#1C1C1E" stroke-width="0.523364"/>
<path d="M143.013 62.662V68.0237H148.243V69.2152H143.013V74.6591H148.836V75.8506H142.324C141.942 75.8506 141.631 75.5404 141.631 75.1578V62.1632C141.631 61.7806 141.942 61.4705 142.324 61.4705H148.836V62.662H143.013Z" stroke="#1C1C1E" stroke-width="0.523364"/>
<path d="M112.903 75.9944C112.175 75.9944 109.994 75.9018 109.16 75.8652C108.975 75.8571 108.831 75.7047 108.831 75.5195V75.0026C108.831 74.8113 108.985 74.6571 109.176 74.6617C110.624 74.696 114.766 74.8658 115.257 74.4173C115.81 73.9106 115.943 72.8992 115.943 72.1323C115.943 71.516 115.789 70.9651 115.487 70.5954C115.184 70.2119 114.787 69.8179 114.339 69.6399C113.892 69.4481 113.298 69.4138 112.509 69.1946C111.587 68.9344 110.857 68.9309 110.318 68.6844C109.778 68.4379 109.213 68.0105 108.831 67.49C108.449 66.9696 108.364 66.0584 108.364 65.1682C108.364 64.4287 108.233 63.6381 108.602 63.0629C108.97 62.474 109.647 62.0082 110.318 61.6795C110.989 61.3508 111.916 61.3267 112.785 61.3267C113.975 61.3267 115.218 61.1838 116.01 61.6974C116.117 61.7663 116.159 61.8969 116.134 62.0209L116.039 62.483C115.992 62.7139 115.726 62.8408 115.499 62.7791C114.687 62.5593 113.404 62.5593 112.666 62.5593C111.837 62.5593 110.87 62.4858 110.318 62.9515C109.765 63.4034 109.52 64.3739 109.52 65.1682C109.52 65.7708 109.905 66.4036 110.208 66.7734C110.511 67.1432 110.897 67.2362 111.344 67.4279C111.805 67.6197 112.423 67.8251 113.199 68.0442C114.094 68.3044 114.818 68.5646 115.371 68.8249C115.923 69.0714 116.289 69.3276 116.634 69.8787C117.101 70.6234 116.958 72.2262 116.958 72.2262C116.958 72.8972 116.766 73.76 116.734 74.2793C116.392 74.8819 116.16 75.2419 115.489 75.6117C114.818 75.9814 113.838 75.9944 112.903 75.9944Z" stroke="#1C1C1E" stroke-width="0.523364"/>
<path d="M157.286 76.2617C156.557 76.2617 154.377 76.1691 153.543 76.1325C153.358 76.1244 153.214 75.9721 153.214 75.7869V75.2699C153.214 75.0786 153.368 74.9245 153.559 74.929C155.007 74.9633 159.149 75.1331 159.64 74.6846C160.192 74.1779 160.325 73.1665 160.325 72.3996C160.325 71.7833 160.172 71.2325 159.869 70.8627C159.567 70.4792 159.169 70.0852 158.722 69.9072C158.274 69.7155 157.681 69.6811 156.891 69.462C155.97 69.2017 155.24 69.1982 154.7 68.9517C154.161 68.7052 153.595 68.2778 153.214 67.7574C152.832 67.2369 152.746 66.3257 152.746 65.4355C152.746 64.696 152.616 63.9055 152.984 63.3303C153.352 62.7414 154.029 62.2755 154.7 61.9468C155.371 61.6181 156.299 61.594 157.167 61.594C158.358 61.594 159.601 61.4511 160.393 61.9647C160.499 62.0336 160.542 62.1642 160.516 62.2883L160.422 62.7503C160.374 62.9813 160.109 63.1081 159.881 63.0465C159.069 62.8266 157.787 62.8266 157.049 62.8266C156.22 62.8266 155.253 62.7532 154.7 63.2188C154.148 63.6707 153.902 64.6412 153.902 65.4355C153.902 66.0381 154.288 66.671 154.591 67.0407C154.893 67.4105 155.279 67.5035 155.727 67.6953C156.187 67.887 156.806 68.0924 157.582 68.3115C158.477 68.5718 159.2 68.832 159.753 69.0922C160.306 69.3387 160.671 69.5949 161.017 70.1461C161.484 70.8907 161.34 72.4935 161.34 72.4935C161.34 73.1645 161.149 74.0273 161.116 74.5466C160.774 75.1492 160.543 75.5092 159.871 75.879C159.2 76.2488 158.22 76.2617 157.286 76.2617Z" stroke="#1C1C1E" stroke-width="0.523364"/>
<path d="M168.861 76.2523C168.133 76.2523 165.952 76.1597 165.118 76.1231C164.933 76.115 164.789 75.9627 164.789 75.7775V75.2605C164.789 75.0692 164.943 74.9151 165.134 74.9196C166.582 74.9539 170.724 75.1237 171.215 74.6752C171.768 74.1685 171.901 73.1571 171.901 72.3902C171.901 71.7739 171.747 71.2231 171.445 70.8533C171.142 70.4698 170.745 70.0758 170.297 69.8978C169.85 69.7061 169.256 69.6717 168.467 69.4525C167.546 69.1923 166.815 69.1888 166.276 68.9423C165.736 68.6958 165.171 68.2684 164.789 67.748C164.407 67.2275 164.322 66.3163 164.322 65.4261C164.322 64.6866 164.191 63.8961 164.56 63.3209C164.928 62.732 165.605 62.2661 166.276 61.9374C166.947 61.6087 167.874 61.5846 168.743 61.5846C169.933 61.5846 171.176 61.4417 171.968 61.9553C172.075 62.0242 172.117 62.1548 172.092 62.2789L171.997 62.7409C171.95 62.9719 171.684 63.0987 171.457 63.0371C170.645 62.8172 169.362 62.8172 168.625 62.8172C167.796 62.8172 166.828 62.7437 166.276 63.2094C165.723 63.6613 165.478 64.6318 165.478 65.4261C165.478 66.0287 165.863 66.6616 166.166 67.0313C166.469 67.4011 166.855 67.4941 167.302 67.6859C167.763 67.8776 168.381 68.083 169.157 68.3021C170.052 68.5624 170.776 68.8226 171.329 69.0828C171.881 69.3293 172.247 69.5855 172.592 70.1367C173.059 70.8813 172.916 72.4841 172.916 72.4841C172.916 73.1551 172.724 74.0179 172.692 74.5372C172.35 75.1398 172.118 75.4998 171.447 75.8696C170.776 76.2394 169.796 76.2523 168.861 76.2523Z" stroke="#1C1C1E" stroke-width="0.523364"/>
</g>
<g clip-path="url(#clip1_2087_1197)">
<path d="M146.976 28.5394C146.976 25.4339 146.848 22.9079 148.09 20.5697C149.369 18.195 151.018 16.3683 153.246 15.0896C155.475 13.8109 157.638 13.2184 160.524 13.2184C164.178 13.2184 167.586 14.0484 169.961 15.802C170.708 16.3535 171.165 17.1661 171.691 18.8473C172.062 20.0319 171.351 21.2723 170.162 21.6286C168.902 22.0063 167.56 21.2469 166.914 20.1009C165.908 18.3159 163.967 16.105 160.524 16.105C157.967 16.105 155.635 18.3254 154.747 20.5697C153.686 22.1001 153.859 25.9539 153.859 29.2055C153.859 32.457 153.693 36.0384 155.191 37.8651C156.726 39.6918 158.361 41.4178 160.919 41.4178C164.042 41.4178 167.642 39.6488 169.319 37.1194C169.775 36.4315 170.542 35.9418 171.36 36.0475C172.433 36.1861 173.164 37.2628 172.728 38.2527C172.049 39.7919 171.2 40.5026 169.406 41.8619C166.995 43.6521 164.499 44.7484 160.919 44.7484C158.032 44.7484 155.199 44.0288 152.971 42.7501C150.742 41.4348 149.196 39.1974 148.09 36.5329C146.848 34.1582 146.976 31.6448 146.976 28.5394Z" fill="#00A83D"/>
<path fill-rule="evenodd" clip-rule="evenodd" d="M123.964 16.4486C118.604 16.4486 114.245 20.0563 114.245 24.5063C114.245 26.0136 115.054 27.8837 116.232 29.7489C118.825 33.8564 123.145 40.0643 123.145 40.0643C123.35 40.2604 123.649 40.3738 123.964 40.3738C124.28 40.3738 124.579 40.2604 124.784 40.0643C124.784 40.0643 129.104 33.8564 131.697 29.7489C132.875 27.8837 133.684 26.0136 133.684 24.5063C133.684 20.0563 129.325 16.4486 123.964 16.4486ZM123.938 21.2577C121.752 21.2577 119.978 22.7131 119.978 24.5063C119.978 26.2995 121.752 27.7549 123.938 27.7549C126.124 27.7549 127.898 26.2995 127.898 24.5063C127.898 22.7131 126.124 21.2577 123.938 21.2577Z" fill="#1C1C1E"/>
<path fill-rule="evenodd" clip-rule="evenodd" d="M131.006 38.1701C132.192 38.5262 133.17 38.9669 133.846 39.4835C134.284 39.8163 134.605 40.1417 134.605 40.5387C134.605 40.7722 134.472 40.9838 134.285 41.1954C133.976 41.5442 133.516 41.858 132.947 42.1499C130.936 43.1787 127.684 43.8223 124.024 43.8223C120.364 43.8223 117.112 43.1787 115.101 42.1499C114.532 41.858 114.073 41.5442 113.763 41.1954C113.576 40.9838 113.444 40.7722 113.444 40.5387C113.444 40.1417 113.765 39.8163 114.202 39.4835C114.878 38.9669 115.856 38.5262 117.042 38.1701C117.62 37.9964 117.949 37.3849 117.775 36.807C117.601 36.2276 116.99 35.8992 116.412 36.0729C114.605 36.6173 113.201 37.363 112.358 38.1876C111.616 38.91 111.254 39.7185 111.254 40.5387C111.254 41.5632 111.834 42.5848 113.012 43.4371C115.078 44.9315 119.229 46.0115 124.024 46.0115C128.82 46.0115 132.97 44.9315 135.037 43.4371C136.215 42.5848 136.794 41.5632 136.794 40.5387C136.794 39.7185 136.432 38.91 135.691 38.1876C134.847 37.363 133.443 36.6173 131.636 36.0729C131.059 35.8992 130.447 36.2276 130.273 36.807C130.1 37.3849 130.428 37.9964 131.006 38.1701Z" fill="#1C1C1E"/>
<path d="M98.46 8.91284e-08C100.238 3.99042e-08 101.679 1.44123 101.679 3.21907V41.0853C101.679 42.8631 100.238 44.3044 98.46 44.3044C96.6822 44.3044 95.241 42.8631 95.241 41.0853V3.21908C95.241 1.44123 96.6822 1.38353e-07 98.46 8.91284e-08Z" fill="#00A83D"/>
<path d="M66.8183 41.4178H79.4748V38.6378C79.4748 37.1074 80.7199 35.8667 82.2503 35.8667C83.7807 35.8667 85.0258 37.1074 85.0258 38.6378V44.5264L61.6793 44.3044C60.0329 44.3044 59.0843 42.4339 60.057 41.1056L78.3645 16.105H66.5963V18.7178C66.5963 22.1001 61.0452 22.1001 61.0452 18.7178V14.2576C61.0452 13.6837 61.5105 13.2184 62.0844 13.2184H84.454C85.8801 13.2184 86.6951 14.8457 85.8408 15.9878L66.8183 41.4178Z" fill="#00A83D"/>
<path d="M46.6773 9.44406C45.5228 9.44406 44.5544 9.053 43.7723 8.27087C42.9902 7.48875 42.5991 6.52041 42.5991 5.36585C42.5991 4.21129 42.9902 3.24295 43.7723 2.46083C44.5544 1.6787 45.5228 1.28764 46.6773 1.28764C47.7946 1.28764 48.7444 1.6787 49.5265 2.46083C50.3086 3.24295 50.6997 4.21129 50.6997 5.36585C50.6997 6.52041 50.3086 7.48875 49.5265 8.27087C48.7444 9.053 47.7946 9.44406 46.6773 9.44406ZM46.6215 13.2184C48.3801 13.2184 49.8058 14.6441 49.8058 16.4028V41.12C49.8058 42.8787 48.3801 44.3043 46.6215 44.3043C44.8628 44.3043 43.4371 42.8787 43.4371 41.12V16.4028C43.4371 14.6441 44.8628 13.2184 46.6215 13.2184Z" fill="#00A83D"/>
<path d="M22.4784 20.7679C24.7663 21.1764 28.3003 22.9847 29.8937 24.9867C31.4871 26.9886 31.9577 30.003 31.9577 32.5361C31.9577 34.7015 31.0377 37.2185 29.8937 38.9753C28.7906 40.6913 27.1989 41.5066 25.0744 42.528C22.9499 43.5085 20.344 44.3043 17.525 44.3043H1.63926C1.06534 44.3043 0.600098 43.8391 0.600098 43.2652V1.86316C0.600098 1.28925 1.06534 0.824005 1.63926 0.824005H16.8403C19.741 0.824005 22.2332 1.31428 24.3169 2.29482C26.4005 3.27535 27.6058 4.60317 28.668 6.27826C29.7303 7.91249 29.5153 10.0654 29.5153 12.1082C29.5153 14.5596 28.6022 16.025 27.2948 17.6593C25.9874 19.2935 24.6846 19.9916 22.4784 20.7679ZM6.86694 19.4356H15.7486C18.0366 19.4356 19.145 18.0145 20.4115 16.9931C21.7189 15.9309 22.1879 14.7727 22.4099 12.5523C22.4099 10.6321 22.163 7.34051 20.8556 6.27826C19.5891 5.17515 17.9691 3.89265 15.9707 3.89265H6.86694V19.4356ZM17.525 40.9737C19.0793 40.9737 22.6319 38.7533 23.7422 36.7549C24.6233 34.7565 24.6233 33.2635 24.6233 31.2207C24.6233 29.1371 23.9083 27.4824 22.4784 26.2567C21.0484 25.0311 19.4505 23.2103 17.0809 23.2103H6.86694V41.1958L17.525 40.9737Z" fill="#00A83D"/>
</g>
<defs>
<clipPath id="clip0_2087_1197">
<rect width="172.71" height="21.6822" fill="white" transform="translate(0.600098 58.3177)"/>
</clipPath>
<clipPath id="clip1_2087_1197">
<rect width="172.8" height="49.0019" fill="white" transform="translate(0.600098)"/>
</clipPath>
</defs>
</svg>
